<?xml version="1.0" standalone="no"?><!DOCTYPE svg PUBLIC "-//W3C//DTD SVG 1.1//EN" "http://www.w3.org/Graphics/SVG/1.1/DTD/svg11.dtd"><svg class="icon" width="200px" height="200.00px" viewBox="0 0 1024 1024" version="1.1" xmlns="http://www.w3.org/2000/svg"><path fill="#333333" d="M966.144 180.224l-327.68 0 0 45.056 274.538496 0c8.99072 0 16.277504 6.87104 16.277504 15.347712l0 417.816576c0 8.476672-7.288832 15.347712-16.277504 15.347712L109.973504 673.792c-8.99072 0-16.277504-6.87104-16.277504-15.347712L93.696 240.627712c0-8.476672 7.286784-15.347712 16.277504-15.347712L384.512 225.28 384.512 180.224l-327.68 0c-10.180608 0-18.432 8.251392-18.432 18.432l0 501.76c0 10.180608 8.251392 18.432 18.432 18.432l346.74688 0-73.33888 128.342016 362.496 0L619.39712 718.848l346.74688 0c10.180608 0 18.432-8.251392 18.432-18.432L984.576 198.656C984.576 188.475392 976.324608 180.224 966.144 180.224zM511.488 346.269696l92.499968-98.77504-53.520384 0c0.612352-1.835008 0.956416-3.790848 0.956416-5.828608L551.424 110.592c0-10.180608-8.251392-18.432-18.432-18.432l-43.008 0c-10.180608 0-18.432 8.251392-18.432 18.432l0 131.072c0 2.039808 0.344064 3.995648 0.956416 5.828608l-53.520384 0L511.488 346.269696z" /></svg>